<?xml version="1.0" encoding="utf-8"?>
<svg viewBox="0 0 1000 1000" width="1000" height="1000" xmlns="http://www.w3.org/2000/svg">
  <g transform="matrix(0.234097, 0, 0, -0.234097, -670.456411, 1601.090676)" fill="#000000" stroke="none">
    <g transform="matrix(0.774695, 0, 0, 0.774695, 2062.493408, 1876.547241)" fill="#000000" stroke="none">
      <path d="M3670 5876 c-121 -26 -235 -117 -292 -233 -31 -64 -33 -74 -33 -173 0 -85 5 -116 23 -160 33 -82 89 -149 165 -199 l67 -44 0 -188 0 -188 -752 -3 -753 -3 -57 -23 c-79 -32 -148 -97 -192 -181 l-36 -69 -1 -238 c-1 -132 -4 -297 -8 -369 l-6 -130 -66 -7 c-37 -3 -80 -13 -96 -21 -47 -25 -111 -101 -120 -144 -4 -21 -8 -234 -8 -473 l0 -435 23 -37 c53 -84 131 -128 231 -128 l51 0 0 -510 0 -510 1950 0 1950 0 0 509 0 508 70 5 c88 7 151 42 198 112 l32 48 0 452 c0 416 -2 454 -19 492 -35 76 -126 134 -214 134 -72 0 -67 -27 -67 375 l0 362 -32 64 c-62 120 -158 190 -285 209 -39 5 -365 10 -770 10 l-703 0 0 189 0 189 69 47 c124 82 186 202 186 361 0 84 -3 95 -38 166 -62 127 -174 212 -311 237 -71 13 -85 13 -156 -3z m142 -226 c125 -35 181 -199 101 -297 -46 -57 -88 -78 -158 -78 -108 0 -185 76 -185 183 0 88 37 147 115 183 46 21 75 23 127 9z m889 -1609 l196 -6 79 -39 c198 -98 316 -315 285 -524 -30 -203 -183 -376 -376 -427 -51 -13 -200 -15 -1121 -15 -659 0 -1081 4 -1114 10 -189 36 -358 216 -392 417 -36 216 85 445 289 545 67 33 70 33 248 39 260 8 1675 8 1906 0z m-175 -1503 c76 -51 94 -86 94 -178 0 -69 -3 -81 -30 -118 -16 -22 -50 -53 -76 -68 l-46 -27 -714 6 c-576 5 -720 9 -747 20 -18 8 -50 34 -70 57 -37 43 -37 45 -37 131 0 85 1 90 32 125 18 20 48 47 68 60 l35 23 721 0 722 1 48 -32z" style="fill: rgb(132, 153, 162);"/>
    </g>
    <path d="M 4939.502 6258.382 C 4864.347 6239.787 4817.085 6173.155 4822.508 6093.351 C 4831.031 5973.258 4964.296 5910.5 5065.019 5979.456 C 5141.723 6032.142 5153.345 6144.487 5088.262 6212.669 C 5051.072 6252.184 4990.638 6270.779 4939.502 6258.382 Z" style="fill: rgb(102, 119, 126);"/>
    <path d="M 7135.248 -5654.42 L 7135.748 -5654.42 L 7135.748 -2988.149 L 2864.007 -2988.149 L 2864.007 -5654.42 Z M 2865.007 -2989.149 L 7134.748 -2989.149 L 7134.748 -5653.42 L 2865.007 -5653.42 Z" style="" transform="matrix(1, 0, 0, -1, 0, 0)"/>
    <path d="M 4119.771 5018.194 C 3976.434 4987.465 3865.639 4882.675 3817.601 4732.186 C 3795.907 4665.215 3798.232 4562 3823.025 4490.301 C 3868.738 4358.721 3975.659 4258.659 4105.825 4223.991 C 4172.457 4206.657 5779.378 4206.657 5846.01 4223.991 C 5978.5 4258.659 6092.395 4368.177 6132.684 4499.755 C 6188.469 4681.761 6103.242 4890.554 5938.985 4978.799 C 5837.488 5032.377 5857.632 5031.588 4970.494 5030.8 C 4294.099 5030.012 4165.484 5028.437 4119.771 5018.194 Z M 4266.982 4877.948 C 4348.335 4855.887 4399.471 4814.128 4442.085 4732.186 C 4457.581 4702.246 4460.68 4685.701 4460.68 4621.88 C 4460.68 4555.697 4458.356 4541.514 4438.986 4502.12 C 4414.192 4450.906 4362.281 4399.693 4309.595 4375.268 C 4282.477 4362.661 4258.459 4358.721 4204.998 4357.934 C 4145.339 4357.934 4129.068 4361.086 4092.653 4378.419 C 3870.287 4486.362 3900.504 4814.128 4138.366 4878.736 C 4186.403 4892.13 4212.746 4892.13 4266.982 4877.948 Z M 5855.308 4862.978 C 6022.663 4784.976 6063.727 4565.151 5934.337 4432.784 C 5916.516 4414.663 5882.426 4390.238 5859.182 4378.419 C 5822.766 4361.086 5806.496 4357.934 5746.837 4357.934 C 5693.376 4358.721 5669.357 4362.661 5642.24 4375.268 C 5589.554 4399.693 5537.643 4450.906 5512.849 4502.12 C 5493.479 4541.514 5491.155 4555.697 5491.155 4621.88 C 5491.155 4701.458 5501.227 4731.399 5546.94 4792.854 C 5611.248 4878.736 5753.035 4911.039 5855.308 4862.978 Z" style="fill: rgb(102, 119, 126);"/>
    <path d="M 3114.089 4484.88 C 3102.467 4472.483 3100.918 4443.041 3100.918 4233.847 C 3100.918 4014.581 3101.693 3996.76 3114.864 3985.138 C 3132.684 3968.868 3158.252 3968.093 3173.748 3984.364 C 3184.595 3994.436 3186.145 4028.527 3186.145 4235.397 C 3186.145 4442.266 3184.595 4476.357 3173.748 4486.43 C 3157.478 4502.7 3129.585 4501.926 3114.089 4484.88 Z" style="fill: rgb(102, 119, 126);"/>
    <path d="M 6778.087 4486.43 C 6767.239 4476.357 6765.69 4442.266 6765.69 4235.397 C 6765.69 4028.527 6767.239 3994.436 6778.087 3984.364 C 6794.357 3968.093 6822.25 3968.868 6837.746 3985.913 C 6849.368 3998.31 6850.917 4027.752 6850.917 4236.946 C 6850.917 4456.213 6850.142 4474.033 6836.971 4485.655 C 6819.151 4501.926 6793.582 4502.7 6778.087 4486.43 Z" style="fill: rgb(102, 119, 126);"/>
    <path d="M 4407.994 3880.535 C 4358.407 3861.628 4323.541 3823.814 4305.721 3769.56 C 4282.477 3698.863 4295.649 3641.322 4347.56 3587.066 C 4369.254 3563.227 4394.822 3545.143 4414.192 3539.389 C 4457.581 3527.058 5494.254 3527.058 5537.643 3539.389 C 5599.626 3557.474 5657.735 3641.322 5657.735 3712.017 C 5657.735 3748.187 5634.492 3806.551 5609.698 3833.678 C 5556.238 3891.222 5596.527 3887.933 4987.539 3889.577 C 4537.384 3891.222 4432.013 3889.577 4407.994 3880.535 Z" style="fill: rgb(102, 119, 126);"/>
  </g>
</svg>