<?xml version="1.0" standalone="no"?>
<!DOCTYPE svg PUBLIC "-//W3C//DTD SVG 20010904//EN"
 "http://www.w3.org/TR/2001/REC-SVG-20010904/DTD/svg10.dtd">
<svg version="1.0" xmlns="http://www.w3.org/2000/svg"
 width="700.000000pt" height="700.000000pt" viewBox="0 0 700.000000 700.000000"
 preserveAspectRatio="xMidYMid meet">
<metadata>
Created by potrace 1.14, written by Peter Selinger 2001-2017
</metadata>
<g transform="translate(0.000000,700.000000) scale(0.100000,-0.100000)"
fill="#000000" stroke="none">
<path d="M3375 6333 c-166 -30 -324 -151 -401 -307 l-39 -80 1 -135 c1 -114 5
-145 23 -193 42 -108 113 -194 226 -271 33 -22 63 -44 66 -49 3 -5 5 -113 5
-241 l-1 -232 -95 -2 c-52 -1 -484 -3 -958 -5 l-864 -3 -76 -37 c-110 -53
-172 -116 -243 -243 l-33 -60 -2 -215 c-3 -250 -13 -676 -18 -705 -2 -17 -17
-22 -99 -35 -113 -18 -159 -46 -220 -132 -36 -50 -38 -59 -43 -143 -3 -50 -6
-313 -6 -586 l-2 -497 28 -43 c70 -108 149 -153 286 -166 36 -3 67 -9 70 -13
3 -5 5 -294 5 -644 0 -350 2 -636 5 -637 7 -1 4890 -1 4920 0 l25 1 0 641 c0
352 2 642 5 644 3 1 34 6 70 9 112 11 158 32 226 101 34 34 65 75 71 91 12 34
10 1111 -2 1164 -11 50 -29 82 -70 123 -62 62 -138 90 -263 96 -31 2 -35 57
-36 496 l-2 440 -38 72 c-80 151 -188 236 -342 268 -33 7 -700 15 -1414 18
l-475 2 -1 238 0 239 25 16 c14 9 28 19 31 22 3 3 24 18 48 34 93 64 163 163
198 281 19 67 25 208 12 270 -18 83 -91 204 -162 269 -119 109 -296 165 -441
139z m-987 -2583 c70 -33 131 -91 180 -173 39 -64 50 -122 46 -247 -2 -80 -6
-99 -34 -157 -39 -78 -128 -171 -196 -202 -61 -29 -126 -39 -226 -35 -103 4
-186 41 -262 117 -221 221 -145 603 142 716 117 46 223 40 350 -19z m2458 31
c60 -16 125 -55 177 -105 160 -156 175 -410 35 -589 -37 -46 -140 -120 -191
-137 -50 -16 -173 -20 -240 -8 -113 21 -232 118 -288 237 -29 61 -32 74 -32
176 0 133 16 189 78 274 64 87 146 138 260 160 51 11 148 7 201 -8z"/>
<path d="M433 3157 c-40 -18 -43 -52 -40 -443 2 -324 4 -375 18 -389 25 -25
64 -27 90 -6 l24 19 0 379 c0 208 -3 390 -7 405 -9 32 -52 50 -85 35z"/>
<path d="M6437 3158 c-17 -6 -30 -20 -34 -36 -13 -49 -9 -765 5 -788 30 -55
105 -33 117 34 8 52 9 701 0 741 -9 40 -48 62 -88 49z"/>
</g>
</svg>
